<svg xmlns="http://www.w3.org/2000/svg" viewBox="0 0 262 251"><title>Convene</title><path fill="#4338ca" fill-rule="evenodd" d="M123.1 250.5C120.5 250.4 117.5 250.2 116.5 250.0C115.5 249.9 113.5 249.6 112.2 249.5C109.8 249.3 108.4 249.0 102.6 248.0C94.7 246.5 86.8 244.3 79.8 241.5C79.1 241.2 78.0 240.8 77.3 240.5C72.5 238.6 64.5 234.7 60.5 232.2C51.1 226.3 45.5 221.9 37.9 214.5C24.5 201.4 14.1 185.9 8.8 171.1C2.6 154.1 0.5 142.5 0.5 126.5C0.5 116.9 1.0 111.3 2.7 102.8C3.5 98.8 4.8 94.3 6.5 89.0C8.8 81.9 10.1 78.8 13.5 71.9C18.2 62.4 25.8 50.7 30.2 46.3C33.6 42.9 37.1 43.4 40.0 47.6C42.0 50.7 41.5 52.4 36.8 58.1C27.9 68.8 19.8 84.1 16.6 96.4C15.5 100.4 15.2 101.9 14.6 104.8C12.9 113.1 12.4 119.5 12.6 129.6C12.7 133.5 12.9 137.4 13.0 138.2C13.1 139.1 13.3 140.8 13.5 142.0C13.9 145.2 15.2 151.1 16.3 154.8C18.9 163.5 20.1 167.0 22.6 172.5C30.5 190.3 45.5 207.6 63.0 219.2C64.2 219.9 65.4 220.8 65.8 221.0C66.2 221.3 66.5 221.5 66.6 221.5C66.6 221.5 67.6 222.1 68.8 222.8C70.7 223.9 79.8 228.5 80.2 228.5C80.2 228.5 80.8 228.7 81.3 229.0C84.1 230.2 84.8 230.5 85.1 230.5C85.2 230.5 85.7 230.6 86.0 230.8C86.7 231.2 92.7 233.1 95.8 234.0C101.4 235.5 109.0 236.9 117.5 237.9C120.8 238.3 126.1 238.4 182.3 238.4C243.5 238.5 243.5 238.5 244.8 237.9C249.6 235.6 250.6 230.2 246.9 227.2C245.2 225.8 246.0 225.9 227.0 225.8C209.4 225.6 209.4 225.6 208.3 224.8C206.1 223.0 205.2 219.6 206.3 217.0C206.9 215.5 208.7 213.8 210.0 213.6C210.5 213.5 218.9 213.4 228.6 213.4C246.4 213.4 246.4 213.4 248.2 214.1C254.6 216.4 258.1 220.0 260.2 226.1C261.1 229.0 261.1 234.6 260.2 237.7C258.3 243.8 254.5 247.7 248.2 250.0C246.6 250.6 246.6 250.6 187.2 250.7C154.6 250.7 125.7 250.6 123.1 250.5ZM152.1 225.7C133.7 225.6 118.3 225.5 117.9 225.4C117.5 225.3 115.4 225.0 113.4 224.7C97.8 222.6 87.1 218.8 73.1 210.6C64.9 205.8 52.7 195.0 46.6 187.1C42.9 182.3 42.5 181.8 40.8 179.0C34.6 169.3 30.8 160.5 28.4 150.6C28.0 149.1 27.6 147.2 27.4 146.4C25.9 140.3 25.3 131.9 25.7 122.2C25.9 118.8 26.1 115.9 26.1 115.7C26.2 115.5 26.4 114.0 26.6 112.4C26.8 110.7 27.2 108.6 27.4 107.6C28.1 104.3 28.8 101.6 29.3 100.1C30.5 96.1 32.0 91.7 32.4 90.9C34.7 85.5 36.2 82.2 36.9 81.0C37.4 80.1 37.8 79.4 37.8 79.3C37.7 79.0 40.5 74.5 42.6 71.4C46.4 65.6 48.4 63.3 50.7 62.2C53.7 60.6 58.5 63.7 58.9 67.4C59.1 69.5 58.9 70.3 57.2 72.4C51.2 79.8 48.8 83.7 44.3 93.6C40.7 101.4 38.3 111.8 37.7 121.7C37.1 132.2 38.3 141.9 41.4 152.0C42.1 154.1 42.2 154.4 43.3 157.0C44.5 159.9 47.1 165.4 48.6 168.0C48.9 168.6 49.4 169.5 49.6 169.9C54.3 178.2 65.2 190.2 73.7 196.2C74.2 196.5 75.4 197.4 76.4 198.1C83.1 202.9 91.2 206.6 101.6 209.8C104.7 210.8 111.0 212.0 116.2 212.8C120.1 213.3 120.7 213.4 156.0 213.5C191.9 213.6 191.9 213.6 192.8 214.3C196.1 216.9 196.3 221.5 193.3 224.4C192.0 225.7 190.8 226.0 187.8 225.9C186.6 225.9 170.6 225.8 152.1 225.7ZM131.6 200.7C126.0 200.7 120.9 200.5 120.4 200.4C119.8 200.3 118.0 200.1 116.4 199.9C110.5 199.1 102.9 197.1 97.0 194.8C93.7 193.6 89.5 191.5 86.9 189.9C77.4 184.0 71.2 178.3 64.6 169.4C58.1 160.6 53.3 149.2 51.3 137.2C50.7 133.4 50.7 120.4 51.3 116.2C52.3 110.3 54.1 103.2 55.4 100.3C55.6 99.9 55.7 99.4 55.7 99.3C55.7 99.0 56.6 97.0 58.4 93.2C63.3 83.1 72.3 72.4 81.4 66.0C82.2 65.5 83.3 64.7 83.9 64.3C84.8 63.6 87.3 62.1 88.9 61.2C90.5 60.2 95.7 57.8 97.4 57.1C103.1 54.9 105.4 54.2 109.8 53.1C112.5 52.5 117.2 51.7 120.6 51.5C125.5 51.0 221.9 50.9 223.7 51.3C225.4 51.6 227.4 53.3 227.7 54.7C228.1 55.9 228.1 58.6 227.8 59.8C227.5 60.8 225.7 62.6 224.5 63.1C223.8 63.4 216.4 63.4 178.5 63.4C117.2 63.3 119.2 63.2 108.0 66.4C105.0 67.2 101.6 68.5 98.1 70.3C94.6 72.0 94.2 72.3 91.1 74.2C85.5 77.8 78.8 84.3 74.9 90.0C72.3 93.8 68.7 100.3 67.6 103.2C61.6 120.2 61.6 133.2 67.6 149.7C68.9 153.3 72.0 158.7 75.1 162.9C85.7 177.0 100.2 185.2 119.0 187.8C122.5 188.3 124.1 188.3 137.1 188.4C153.3 188.4 151.9 188.2 153.7 190.5C156.4 193.9 154.7 199.1 150.5 200.6C149.3 201.0 149.3 201.0 131.6 200.7ZM180.5 200.5C174.4 199.9 168.8 194.6 166.4 187.4C165.6 184.8 165.6 179.0 166.4 176.2C168.2 170.3 172.3 166.1 178.1 164.2C180.5 163.4 184.6 163.3 200.8 163.3C217.7 163.2 216.9 163.2 218.7 165.0C221.5 167.9 220.9 172.9 217.4 175.2C216.7 175.6 215.9 175.6 199.6 175.6C182.6 175.7 182.6 175.7 181.4 176.3C178.9 177.6 177.7 179.5 177.7 182.0C177.7 184.8 178.8 186.4 181.3 187.8C182.4 188.4 182.4 188.4 207.9 188.5C233.4 188.6 233.4 188.6 234.2 189.2C237.1 191.0 237.9 193.4 236.8 197.1C236.5 198.1 234.8 200.0 233.8 200.4C233.0 200.8 184.0 200.9 180.5 200.5ZM122.4 175.5C117.7 175.1 112.4 173.8 106.5 171.6C104.8 171.0 99.7 168.3 97.6 166.8C87.9 160.6 80.9 150.8 77.4 138.8C74.9 130.1 75.9 116.5 79.6 107.6C83.3 98.9 87.8 92.6 94.2 87.5C101.1 82.1 110.6 77.9 119.6 76.5C122.4 76.0 211.5 75.8 213.1 76.2C215.5 76.9 217.5 79.6 217.5 82.2C217.5 84.4 216.0 87.0 214.2 88.0C213.0 88.5 213.0 88.5 167.8 88.5C115.8 88.5 120.3 88.2 111.9 91.3C104.3 94.1 96.3 101.6 92.5 109.4C91.1 112.3 91.1 112.3 90.5 114.2C87.3 123.8 87.9 134.2 92.1 142.2C97.2 152.2 104.6 158.3 115.6 161.6C120.1 163.0 123.3 163.2 136.6 163.3C143.4 163.3 149.5 163.4 150.2 163.5C153.8 164.0 155.8 168.8 153.9 172.4C153.2 173.9 151.6 175.2 150.3 175.5C149.2 175.8 125.9 175.8 122.4 175.5ZM152.1 150.7C124.4 150.6 122.3 150.6 120.9 150.1C120.0 149.9 119.0 149.6 118.5 149.5C112.7 148.0 106.2 142.7 103.4 137.0C100.4 130.7 100.6 121.8 104.0 115.0C108.0 106.9 115.5 102.1 125.2 101.3C129.7 100.9 178.9 100.9 180.4 101.3C182.6 101.8 184.5 104.6 184.5 107.3C184.5 108.5 183.6 111.0 182.9 111.7C182.6 112.0 181.8 112.6 181.1 112.9C179.9 113.5 179.9 113.5 152.2 113.5C121.1 113.5 123.5 113.4 120.0 115.3C114.5 118.4 112.1 125.8 114.8 131.3C116.3 134.3 119.0 136.5 122.6 137.8C124.1 138.4 124.1 138.4 154.7 138.4C188.8 138.4 185.4 138.2 187.5 140.2C189.8 142.3 189.8 146.6 187.4 149.2C185.7 151.0 188.5 150.9 152.1 150.7ZM66.5 56.9C63.5 55.3 61.8 52.4 62.6 50.2C63.4 48.0 67.1 45.0 74.7 40.4C78.8 38.0 85.7 34.5 88.7 33.4C89.2 33.2 90.2 32.8 91.0 32.5C92.2 32.0 94.9 31.1 98.0 30.2C100.4 29.4 106.9 27.9 111.4 27.1C112.7 26.9 116.7 26.5 120.2 26.2C126.3 25.8 129.4 25.8 185.0 25.8C223.4 25.7 243.7 25.7 244.3 25.5C246.5 24.9 248.7 21.8 248.7 19.4C248.7 16.6 246.5 13.8 243.8 13.3C242.0 12.9 127.0 13.1 121.0 13.5C112.5 14.0 104.2 15.3 96.5 17.3C91.6 18.6 89.4 19.3 86.2 20.5C85.5 20.8 84.4 21.2 83.9 21.4C83.3 21.6 82.5 21.9 82.1 22.1C79.7 23.2 78.0 24.0 77.0 24.5C75.9 25.0 73.2 26.4 71.6 27.4C71.2 27.7 70.1 28.3 69.3 28.7C65.7 30.8 62.0 33.4 57.2 37.1C52.8 40.6 51.8 40.9 49.3 39.6C45.7 37.8 43.8 33.7 45.5 31.4C47.4 28.7 57.1 21.4 64.5 17.1C65.9 16.2 72.7 12.9 74.8 12.0C75.8 11.6 77.0 11.1 77.4 10.9C82.8 8.4 92.1 5.4 98.5 4.0C115.1 0.6 118.2 0.5 189.6 0.6C245.9 0.6 245.9 0.6 247.5 1.2C254.0 3.5 258.3 7.9 260.2 14.1C260.9 16.4 260.8 22.6 260.1 24.8C257.8 31.8 252.9 36.5 246.6 37.9C245.0 38.2 238.3 38.3 188.1 38.3C117.7 38.3 116.7 38.3 105.2 41.0C101.8 41.9 96.1 43.6 95.0 44.2C94.7 44.4 94.3 44.5 94.1 44.5C94.0 44.5 92.9 44.9 91.7 45.4C90.6 45.9 89.3 46.4 88.9 46.6C88.2 46.8 86.1 47.9 82.8 49.7C81.9 50.2 79.2 51.8 76.8 53.4C70.3 57.7 69.0 58.2 66.5 56.9Z"/></svg>
